<?xml version="1.0" encoding="UTF-8" standalone="no"?>
<!-- Created with Inkscape (http://www.inkscape.org/) -->

<svg
   xmlns:dc="http://purl.org/dc/elements/1.1/"
   xmlns:cc="http://creativecommons.org/ns#"
   xmlns:rdf="http://www.w3.org/1999/02/22-rdf-syntax-ns#"
   xmlns:svg="http://www.w3.org/2000/svg"
   xmlns="http://www.w3.org/2000/svg"
   xmlns:sodipodi="http://sodipodi.sourceforge.net/DTD/sodipodi-0.dtd"
   xmlns:inkscape="http://www.inkscape.org/namespaces/inkscape"
   width="111.20424mm"
   height="96.67572mm"
   viewBox="0 0 111.20424 96.67572"
   version="1.1"
   id="svg8"
   inkscape:version="0.92.2 (5c3e80d, 2017-08-06)"
   sodipodi:docname="redboat.svg">
  <defs
     id="defs2" />
  <sodipodi:namedview
     id="base"
     pagecolor="#ffffff"
     bordercolor="#666666"
     borderopacity="1.0"
     inkscape:pageopacity="0.0"
     inkscape:pageshadow="2"
     inkscape:zoom="1.979899"
     inkscape:cx="64.758089"
     inkscape:cy="168.3062"
     inkscape:document-units="mm"
     inkscape:current-layer="layer1"
     showgrid="false"
     inkscape:window-width="1920"
     inkscape:window-height="1137"
     inkscape:window-x="1192"
     inkscape:window-y="549"
     inkscape:window-maximized="1"
     fit-margin-top="0"
     fit-margin-left="0"
     fit-margin-right="0"
     fit-margin-bottom="0" />
  <metadata
     id="metadata5">
    <rdf:RDF>
      <cc:Work
         rdf:about="">
        <dc:format>image/svg+xml</dc:format>
        <dc:type
           rdf:resource="http://purl.org/dc/dcmitype/StillImage" />
        <dc:title></dc:title>
      </cc:Work>
    </rdf:RDF>
  </metadata>
  <g
     inkscape:label="Layer 1"
     inkscape:groupmode="layer"
     id="layer1"
     transform="translate(-36.695688,-141.52379)">
    <path
       style="fill:#ff0000;stroke-width:1.05833333;stroke:#000000;stroke-opacity:1;stroke-miterlimit:4;stroke-dasharray:none"
       d="m 41.082016,232.99604 c -1.152212,-2.86191 -2.671919,-6.63222 -3.377128,-8.37847 -1.139888,-2.82261 -1.218593,-3.20357 -0.709122,-3.43239 0.31519,-0.14157 6.178605,-1.54026 13.029809,-3.10821 6.851205,-1.56795 19.956805,-4.57959 29.123559,-6.69255 9.166753,-2.11295 20.061705,-4.61943 24.210996,-5.56995 l 7.54419,-1.72823 0.059,-1.99337 c 0.0325,-1.09634 -0.0848,-1.99336 -0.26045,-1.99336 -0.33865,0 -36.089181,8.69331 -54.437691,13.23739 -5.126764,1.26966 -7.618798,1.74465 -7.785978,1.48404 -0.59732,-0.93114 -1.506764,-4.22016 -1.234236,-4.46363 0.165085,-0.14748 3.616461,-1.01173 7.669724,-1.92056 4.053268,-0.90882 11.475381,-2.57716 16.493587,-3.70743 l 9.124012,-2.05502 -0.374538,-19.85379 -0.374638,-19.85378 -1.320697,0.22091 c -0.72638,0.1215 -1.913638,0.32152 -2.638363,0.4445 l -1.317665,0.22358 -0.06587,-2.80792 -0.06587,-2.80791 3.632731,-0.76602 c 1.998006,-0.42131 3.89492,-0.76602 4.21537,-0.76602 0.51811,0 0.5675,-0.64456 0.446073,-5.82084 l -0.136548,-5.82083 h -2.29305 -2.29306 l -0.04155,-1.7712 -0.04155,-1.77119 7.145991,0.0955 7.14599,0.0955 0.146839,1.6757 0.146829,1.67569 h -1.959588 -1.9596 l 0.120154,5.122 0.120154,5.122 0.789407,-0.18512 c 1.219572,-0.28599 11.677041,-2.4737 22.730791,-4.7553 5.50316,-1.1359 10.43969,-2.17611 10.97009,-2.31156 l 0.96435,-0.24629 0.0746,3.18121 0.0746,3.18121 -2.45907,0.44131 -2.4591,0.44132 0.40418,17.22961 c 0.2223,9.47629 0.49078,17.22961 0.59661,17.22961 0.10584,0 6.26874,-1.83733 13.69534,-4.08296 7.4266,-2.24563 13.60735,-3.9809 13.73501,-3.85616 0.12766,0.12474 -0.67917,3.11301 -1.79295,6.6406 -1.11378,3.52759 -4.08866,12.92255 -6.61084,20.87769 -2.52217,7.95514 -5.28847,16.68639 -6.14732,19.40278 -0.85888,2.71638 -1.58704,4.97526 -1.61815,5.01973 -0.11697,0.16716 -83.653081,4.68165 -86.629313,4.68165 H 43.17689 Z M 109.65258,181.6084 c 3.45725,-2.05432 5.06703,-4.5934 5.22777,-8.24563 0.19068,-4.33256 -1.82995,-7.85588 -5.59722,-9.75969 -5.41758,-2.73781 -12.255018,-0.1197 -13.99296,5.35801 -2.269835,7.15412 3.034673,14.14983 10.41157,13.73103 1.75095,-0.0994 2.76023,-0.37625 3.95084,-1.08372 z"
       id="path3764"
       inkscape:connector-curvature="0" />
  </g>
</svg>
